<svg width="318" height="262" viewBox="0 0 318 262" fill="none" xmlns="http://www.w3.org/2000/svg">
<rect x="214" y="130.8" width="104" height="131.2" fill="#2D4D43"/>
<path d="M214 118H302.873L318 130.8H214L214 118Z" fill="#55917E"/>
<path d="M265.237 184.46C275.677 184.46 281.857 179.36 281.857 171.32C281.857 165.86 278.497 162.32 273.517 161.24C277.777 159.74 280.597 156.74 280.597 151.94C280.597 145.22 275.077 140.3 265.657 140.3C255.877 140.3 250.297 146.06 249.817 153.92H258.397C258.877 149.9 261.397 147.44 265.477 147.44C269.437 147.44 271.417 149.72 271.417 152.78C271.417 156.44 269.377 158.48 264.877 158.48H261.757V164.96H265.117C269.737 164.96 272.017 167.06 272.017 171.14C272.017 174.98 269.737 177.32 264.877 177.32C259.717 177.32 257.497 174.32 257.137 170.18H248.377C248.737 178.88 254.317 184.46 265.237 184.46Z" fill="white"/>
<rect y="98" width="104" height="164" fill="#2D4D43"/>
<path d="M14.1818 82H104V98H0L14.1818 82Z" fill="#55917E"/>
<path d="M29.2491 180H72.4491V170.16H50.2091L61.0091 159.6C67.6491 153.2 72.0491 146.96 72.0491 139.36C72.0491 129.04 64.8491 122 52.2091 122C39.4091 122 31.4091 129.2 30.7691 142.4H42.5291C43.4091 134.88 46.6091 131.92 51.6491 131.92C56.6091 131.92 59.2491 134.96 59.2491 139.68C59.2491 144.88 55.7291 149.92 50.2091 155.76L29.2491 177.92V180Z" fill="white"/>
<rect x="104" y="16" width="110" height="246" fill="url(#paint0_linear_1603_2778)"/>
<path d="M120 0H198L214 16H104L120 0Z" fill="#55917E"/>
<path d="M155.167 118H171.367V46.5H157.167L140.667 58.2V72L155.167 62.5V118Z" fill="white"/>
<defs>
<linearGradient id="paint0_linear_1603_2778" x1="159" y1="16" x2="159" y2="189" gradientUnits="userSpaceOnUse">
<stop stop-color="#2D4D43"/>
<stop offset="1" stop-color="#AFD0C6"/>
</linearGradient>
</defs>
</svg>